<?xml version="1.0" encoding="UTF-8" standalone="no"?>
<!DOCTYPE svg PUBLIC "-//W3C//DTD SVG 1.1//EN" "http://www.w3.org/Graphics/SVG/1.1/DTD/svg11.dtd">
<svg width="100%" height="100%" viewBox="0 0 800 600" version="1.1" xmlns="http://www.w3.org/2000/svg" xmlns:xlink="http://www.w3.org/1999/xlink" xml:space="preserve" xmlns:serif="http://www.serif.com/" style="fill-rule:evenodd;clip-rule:evenodd;stroke-linejoin:round;stroke-miterlimit:2;">
    <g transform="matrix(1,0,0,0.0635621,14.5791,274.315)">
        <path d="M140.684,622.279C168.203,622.279 197.161,626.637 224.789,628.048C284.147,631.079 343.996,630.28 403.479,630.28C437.356,630.28 472.287,632.38 506.045,629.706C515.719,628.94 525.236,626.365 534.946,625.825C553.111,624.816 571.349,626.539 589.453,623.963C614.225,620.438 638.933,615.058 663.918,615.058C673.852,615.058 681.918,488.166 681.918,331.87C681.918,175.575 673.852,48.682 663.918,48.682C638.823,48.682 614.007,54.071 589.128,57.611C571.089,60.177 552.918,58.448 534.819,59.454C525.091,59.994 515.556,62.571 505.864,63.338C472.166,66.007 437.296,63.905 403.479,63.905C344.035,63.905 284.225,64.704 224.905,61.675C197.239,60.263 168.241,55.904 140.684,55.904C130.75,55.904 122.684,182.796 122.684,339.091C122.684,495.387 130.75,622.279 140.684,622.279Z" style="fill:rgb(32,77,138);"/>
    </g>
    <g transform="matrix(1,0,0,0.0635621,16.5532,412.629)">
        <path d="M140.684,622.279C168.203,622.279 197.161,626.637 224.789,628.048C284.147,631.079 343.996,630.28 403.479,630.28C437.356,630.28 472.287,632.38 506.045,629.706C515.719,628.94 525.236,626.365 534.946,625.825C553.111,624.816 571.349,626.539 589.453,623.963C614.225,620.438 638.933,615.058 663.918,615.058C673.852,615.058 681.918,488.166 681.918,331.87C681.918,175.575 673.852,48.682 663.918,48.682C638.823,48.682 614.007,54.071 589.128,57.611C571.089,60.177 552.918,58.448 534.819,59.454C525.091,59.994 515.556,62.571 505.864,63.338C472.166,66.007 437.296,63.905 403.479,63.905C344.035,63.905 284.225,64.704 224.905,61.675C197.239,60.263 168.241,55.904 140.684,55.904C130.75,55.904 122.684,182.796 122.684,339.091C122.684,495.387 130.75,622.279 140.684,622.279Z" style="fill:rgb(32,77,138);"/>
    </g>
    <g transform="matrix(1,0,0,0.0635621,12.0686,148.812)">
        <path d="M140.684,622.279C168.203,622.279 197.161,626.637 224.789,628.048C284.147,631.079 343.996,630.28 403.479,630.28C437.356,630.28 472.287,632.38 506.045,629.706C515.719,628.94 525.236,626.365 534.946,625.825C553.111,624.816 571.349,626.539 589.453,623.963C614.225,620.438 638.933,615.058 663.918,615.058C673.852,615.058 681.918,488.166 681.918,331.87C681.918,175.575 673.852,48.682 663.918,48.682C638.823,48.682 614.007,54.071 589.128,57.611C571.089,60.177 552.918,58.448 534.819,59.454C525.091,59.994 515.556,62.571 505.864,63.338C472.166,66.007 437.296,63.905 403.479,63.905C344.035,63.905 284.225,64.704 224.905,61.675C197.239,60.263 168.241,55.904 140.684,55.904C130.75,55.904 122.684,182.796 122.684,339.091C122.684,495.387 130.75,622.279 140.684,622.279Z" style="fill:rgb(32,77,138);"/>
    </g>
</svg>
